<svg width="45" height="45" viewBox="0 0 45 45" fill="none" xmlns="http://www.w3.org/2000/svg">
<rect width="45" height="45" rx="8" fill="#FFF6ED"/>
<path d="M22.9109 11.4531C18.9852 11.4531 15.7109 14.6155 15.7109 18.6531C15.7109 20.1892 16.1725 21.559 17.0584 22.8425L22.3599 31.1151C22.6171 31.5172 23.2053 31.5164 23.4619 31.1151L28.7865 22.8143C29.6533 21.589 30.1109 20.1502 30.1109 18.6531C30.1109 14.683 26.881 11.4531 22.9109 11.4531ZM22.9109 21.9259C21.1064 21.9259 19.6382 20.4576 19.6382 18.6531C19.6382 16.8486 21.1064 15.3804 22.9109 15.3804C24.7154 15.3804 26.1837 16.8486 26.1837 18.6531C26.1837 20.4576 24.7154 21.9259 22.9109 21.9259Z" fill="url(#paint0_linear_302_2530)"/>
<path d="M28.027 26.4932L24.7311 31.6461C23.8779 32.9762 21.9373 32.9718 21.0882 31.6473L17.787 26.4945C14.8824 27.1661 13.0918 28.3963 13.0918 29.8665C13.0918 32.4175 18.1505 33.7937 22.91 33.7937C27.6695 33.7937 32.7282 32.4175 32.7282 29.8665C32.7282 28.3953 30.9351 27.1644 28.027 26.4932Z" fill="url(#paint1_linear_302_2530)"/>
<defs>
<linearGradient id="paint0_linear_302_2530" x1="15.7109" y1="21.4356" x2="30.1109" y2="21.4356" gradientUnits="userSpaceOnUse">
<stop stop-color="#FF820F"/>
<stop offset="1" stop-color="#FFCFA4"/>
</linearGradient>
<linearGradient id="paint1_linear_302_2530" x1="13.0918" y1="30.1438" x2="32.7282" y2="30.1438" gradientUnits="userSpaceOnUse">
<stop stop-color="#FF820F"/>
<stop offset="1" stop-color="#FFCFA4"/>
</linearGradient>
</defs>
</svg>
