<svg width="45" height="45" viewBox="0 0 45 45" fill="none" xmlns="http://www.w3.org/2000/svg">
<rect width="45" height="45" rx="8" fill="#FFF6ED"/>
<path d="M18.2252 13.95C18.2252 13.4253 17.7999 13 17.2752 13C16.7505 13 16.3252 13.4253 16.3252 13.95V14.9C16.3252 15.4247 16.7505 15.85 17.2752 15.85C17.7999 15.85 18.2252 15.4247 18.2252 14.9V13.95Z" fill="url(#paint0_linear_302_2577)"/>
<path d="M28.6744 13.95C28.6744 13.4253 28.2491 13 27.7244 13C27.1997 13 26.7744 13.4253 26.7744 13.95V14.9C26.7744 15.4247 27.1997 15.85 27.7244 15.85C28.2491 15.85 28.6744 15.4247 28.6744 14.9V13.95Z" fill="url(#paint1_linear_302_2577)"/>
<path d="M13 20.1248V31.0498C13 31.5537 13.2002 32.037 13.5565 32.3933C13.9128 32.7496 14.3961 32.9498 14.9 32.9498H30.1C30.6039 32.9498 31.0872 32.7496 31.4435 32.3933C31.7998 32.037 32 31.5537 32 31.0498V20.1248H13ZM18.7 29.6248C18.7 29.8768 18.5999 30.1184 18.4218 30.2966C18.2436 30.4747 18.002 30.5748 17.75 30.5748H16.8C16.548 30.5748 16.3064 30.4747 16.1282 30.2966C15.9501 30.1184 15.85 29.8768 15.85 29.6248V28.6748C15.85 28.4228 15.9501 28.1812 16.1282 28.0031C16.3064 27.8249 16.548 27.7248 16.8 27.7248H17.75C18.002 27.7248 18.2436 27.8249 18.4218 28.0031C18.5999 28.1812 18.7 28.4228 18.7 28.6748V29.6248ZM18.7 24.3998C18.7 24.6518 18.5999 24.8934 18.4218 25.0716C18.2436 25.2497 18.002 25.3498 17.75 25.3498H16.8C16.548 25.3498 16.3064 25.2497 16.1282 25.0716C15.9501 24.8934 15.85 24.6518 15.85 24.3998V23.4498C15.85 23.1978 15.9501 22.9562 16.1282 22.7781C16.3064 22.5999 16.548 22.4998 16.8 22.4998H17.75C18.002 22.4998 18.2436 22.5999 18.4218 22.7781C18.5999 22.9562 18.7 23.1978 18.7 23.4498V24.3998ZM23.925 29.6248C23.925 29.8768 23.8249 30.1184 23.6468 30.2966C23.4686 30.4747 23.227 30.5748 22.975 30.5748H22.025C21.773 30.5748 21.5314 30.4747 21.3532 30.2966C21.1751 30.1184 21.075 29.8768 21.075 29.6248V28.6748C21.075 28.4228 21.1751 28.1812 21.3532 28.0031C21.5314 27.8249 21.773 27.7248 22.025 27.7248H22.975C23.227 27.7248 23.4686 27.8249 23.6468 28.0031C23.8249 28.1812 23.925 28.4228 23.925 28.6748V29.6248ZM23.925 24.3998C23.925 24.6518 23.8249 24.8934 23.6468 25.0716C23.4686 25.2497 23.227 25.3498 22.975 25.3498H22.025C21.773 25.3498 21.5314 25.2497 21.3532 25.0716C21.1751 24.8934 21.075 24.6518 21.075 24.3998V23.4498C21.075 23.1978 21.1751 22.9562 21.3532 22.7781C21.5314 22.5999 21.773 22.4998 22.025 22.4998H22.975C23.227 22.4998 23.4686 22.5999 23.6468 22.7781C23.8249 22.9562 23.925 23.1978 23.925 23.4498V24.3998ZM29.15 29.6248C29.15 29.8768 29.0499 30.1184 28.8718 30.2966C28.6936 30.4747 28.452 30.5748 28.2 30.5748H27.25C26.998 30.5748 26.7564 30.4747 26.5782 30.2966C26.4001 30.1184 26.3 29.8768 26.3 29.6248V28.6748C26.3 28.4228 26.4001 28.1812 26.5782 28.0031C26.7564 27.8249 26.998 27.7248 27.25 27.7248H28.2C28.452 27.7248 28.6936 27.8249 28.8718 28.0031C29.0499 28.1812 29.15 28.4228 29.15 28.6748V29.6248ZM29.15 24.3998C29.15 24.6518 29.0499 24.8934 28.8718 25.0716C28.6936 25.2497 28.452 25.3498 28.2 25.3498H27.25C26.998 25.3498 26.7564 25.2497 26.5782 25.0716C26.4001 24.8934 26.3 24.6518 26.3 24.3998V23.4498C26.3 23.1978 26.4001 22.9562 26.5782 22.7781C26.7564 22.5999 26.998 22.4998 27.25 22.4998H28.2C28.452 22.4998 28.6936 22.5999 28.8718 22.7781C29.0499 22.9562 29.15 23.1978 29.15 23.4498V24.3998ZM32 19.1748V16.3248C32 15.8209 31.7998 15.3376 31.4435 14.9813C31.0872 14.625 30.6039 14.4248 30.1 14.4248H29.625V14.8998C29.625 15.9477 28.7729 16.7998 27.725 16.7998C26.6771 16.7998 25.825 15.9477 25.825 14.8998V14.4248H19.175V14.8998C19.175 15.9477 18.3228 16.7998 17.275 16.7998C16.2271 16.7998 15.375 15.9477 15.375 14.8998V14.4248H14.9C14.3961 14.4248 13.9128 14.625 13.5565 14.9813C13.2002 15.3376 13 15.8209 13 16.3248V19.1748H32Z" fill="url(#paint2_linear_302_2577)"/>
<defs>
<linearGradient id="paint0_linear_302_2577" x1="16.3252" y1="14.4251" x2="18.2252" y2="14.4251" gradientUnits="userSpaceOnUse">
<stop stop-color="#FF820F"/>
<stop offset="1" stop-color="#FFCFA4"/>
</linearGradient>
<linearGradient id="paint1_linear_302_2577" x1="26.7744" y1="14.4251" x2="28.6744" y2="14.4251" gradientUnits="userSpaceOnUse">
<stop stop-color="#FF820F"/>
<stop offset="1" stop-color="#FFCFA4"/>
</linearGradient>
<linearGradient id="paint2_linear_302_2577" x1="13" y1="23.6881" x2="32" y2="23.6881" gradientUnits="userSpaceOnUse">
<stop stop-color="#FF820F"/>
<stop offset="1" stop-color="#FFCFA4"/>
</linearGradient>
</defs>
</svg>
