<svg width="143" height="72" viewBox="0 0 143 72" fill="none" xmlns="http://www.w3.org/2000/svg">
<g clip-path="url(#clip0_451_1952)">
<path d="M63.9849 30.2254C63.6967 30.0097 63.3661 30.1009 63.0609 30.1009C60.094 30.0926 57.127 30.076 54.16 30.1009C53.592 30.1009 53.4225 29.9267 53.431 29.3957C53.4564 27.8774 53.414 26.3591 53.4564 24.8407C53.5412 21.8788 55.8724 19.7299 58.9156 19.7299C67.1215 19.7299 75.3273 19.7382 83.5331 19.7299C86.5933 19.7299 88.7974 17.357 88.3057 14.6439C87.9497 12.6444 86.1186 11.0348 84.0672 11.0016C81.7699 10.9601 79.4726 11.0016 77.1753 10.9767C76.5226 10.9684 76.4208 11.2837 76.4293 11.7981C76.4463 13.4741 76.4208 15.15 76.4547 16.8177C76.4547 17.2574 76.353 17.4234 75.8868 17.4234C72.8689 17.4068 69.8426 17.4151 66.8248 17.4234C66.0279 17.4234 65.994 16.8094 65.8753 16.295C65.799 15.9714 65.8499 15.6146 65.8499 15.2745C65.8499 10.7527 65.8499 6.22262 65.8499 1.70084C65.8499 0.630543 65.8499 0.630543 66.9774 0.630543C72.5638 0.630543 78.1502 0.605652 83.7366 0.638839C89.6705 0.680324 94.2227 3.26064 97.088 8.29683C99.8854 13.2086 99.6311 18.2447 96.7234 23.0901C95.4604 25.1975 93.6717 26.8569 91.4931 28.0682C90.9082 28.3918 90.8234 28.649 91.1625 29.2132C93.8412 33.6437 96.4861 38.0908 99.1479 42.5379C99.2581 42.7204 99.3513 42.903 99.4531 43.0855C99.2751 43.3593 99.0038 43.2514 98.7919 43.2514C95.3671 43.2597 91.9508 43.2514 88.5261 43.268C88.009 43.268 87.7123 43.1104 87.4495 42.6624C85.1014 38.7131 82.7108 34.7804 80.3627 30.8228C80.066 30.3167 79.7438 30.018 79.1081 30.0843C78.1586 30.1839 77.1922 29.9267 76.2513 30.2337C75.9292 30.0677 75.5816 30.0926 75.234 30.1009C71.716 30.1009 68.1981 30.1175 64.6801 30.1175C64.4342 30.1175 64.2053 30.1175 63.9765 30.2254H63.9849Z" fill="#FF820F"/>
<path d="M63.9853 30.2254C64.2057 30.1175 64.4431 30.1175 64.6889 30.1175C68.2069 30.1175 71.7249 30.1009 75.2429 30.1009C75.5905 30.1009 75.938 30.0677 76.2601 30.2337C73.0558 37.6593 67.4185 42.2558 59.3399 43.7326C49.7862 45.4833 40.4868 41.1108 35.6973 32.8886C29.2038 21.7294 34.0019 7.27629 45.9715 1.9829C51.4307 -0.431479 57.0171 -0.580823 62.6968 1.17811C63.2902 1.36064 63.5106 1.62614 63.5021 2.28159C63.4597 5.9322 63.4852 9.59111 63.4852 13.3413C62.5357 12.7356 61.7304 12.0802 60.781 11.6238C56.144 9.37539 50.8289 10.0972 47.1074 13.5321C43.4538 16.9006 42.3264 22.1193 44.2846 26.6411C46.2597 31.221 50.9052 34.0668 56.0169 33.8013C59.1449 33.6354 61.7813 32.3825 63.9938 30.2337L63.9853 30.2254Z" fill="#024063"/>
<path fill-rule="evenodd" clip-rule="evenodd" d="M52.8634 17.1578C52.1344 17.1578 51.541 17.7469 51.541 18.4604V23.2311C51.541 23.704 51.9394 24.0939 52.4226 24.0939H52.8634V29.7026C52.8634 29.9432 53.0669 30.134 53.3043 30.134H55.9576C56.2034 30.134 56.3984 29.9349 56.3984 29.7026V28.3419H55.0336C54.6521 28.3419 54.3469 28.0349 54.3469 27.6699V24.8407C54.3469 24.4673 54.6606 24.1686 55.0336 24.1686H56.373C56.373 23.9031 56.339 23.6957 56.551 23.4883C56.6612 23.3804 56.8053 23.314 56.9748 23.314C57.1868 23.314 57.1868 23.6376 56.9748 23.6376C56.8307 23.6376 56.7036 23.7538 56.7036 23.9031V24.0939H56.8392C57.3224 24.0939 57.7208 23.704 57.7208 23.2311V18.4604C57.7208 17.7469 57.1274 17.1661 56.3984 17.1578H55.6863L55.1353 17.6971L54.6267 17.1993L54.1181 17.6971L53.567 17.1578H52.855H52.8634ZM54.6352 13.6897C55.4913 13.6897 56.1865 14.37 56.1865 15.208C56.1865 16.046 55.4913 16.7263 54.6352 16.7263C53.779 16.7263 53.0838 16.046 53.0838 15.208C53.0838 14.37 53.779 13.6897 54.6352 13.6897Z" fill="#024063"/>
<path d="M59.2469 24.4839H55.0422C54.8473 24.4839 54.6777 24.6415 54.6777 24.8407V27.6699C54.6777 27.8607 54.8388 28.0266 55.0422 28.0266H59.2469C59.4419 28.0266 59.6114 27.869 59.6114 27.6699V24.8407C59.6114 24.6498 59.4503 24.4839 59.2469 24.4839Z" fill="#024063"/>
<path d="M13.1056 54.7923L12.4528 54.8836L11.639 51.7557C10.9863 51.5483 10.2318 51.4487 9.36718 51.4487C7.63786 51.4487 6.29 52.0793 5.31513 53.3404C4.34875 54.6015 3.85708 56.3272 3.85708 58.5259C3.85708 60.7246 4.34027 62.6162 5.31513 63.9023C6.29 65.1883 7.65481 65.8271 9.40957 65.8271C9.82495 65.8271 10.2742 65.7939 10.7574 65.7276V62.7407C10.7574 62.359 10.7574 62.0189 10.7574 61.7119C10.7574 61.4049 10.7489 61.1145 10.7405 60.8573C10.7405 60.6582 10.6387 60.5337 10.4522 60.484L8.87551 60.0442L8.8416 59.48C9.93515 59.5049 11.1304 59.5132 12.4105 59.5132C13.6905 59.5132 14.8603 59.5049 15.8098 59.48L15.8776 60.0442L14.4958 60.4176C14.3093 60.4674 14.2076 60.5835 14.1906 60.7578C14.1906 61.0564 14.1737 61.3717 14.1737 61.6787C14.1737 61.994 14.1737 62.3342 14.1737 62.6909V66.2669L14.0889 66.3498C12.4274 66.7232 10.8507 66.9057 9.35023 66.9057C6.53583 66.9057 4.27245 66.2005 2.56856 64.7983C0.856186 63.3878 0 61.4298 0 58.9076C0 56.2277 0.856186 54.1369 2.56856 52.6185C4.28093 51.1002 6.61213 50.3452 9.57063 50.3452C10.9948 50.3452 12.3935 50.5029 13.7668 50.8098L13.8516 50.9094L13.1056 54.7923Z" fill="#FF820F"/>
<path d="M25.8807 65.5866C24.7448 66.3997 23.5071 66.8145 22.1677 66.8145C20.9131 66.8145 19.9722 66.5158 19.3364 65.9102C18.7006 65.3045 18.3869 64.4582 18.3869 63.3547V60.9486C18.3869 59.3308 18.37 58.136 18.3446 57.3727L16.6831 56.9496L16.6152 56.4849C18.5056 56.2028 20.1756 55.9125 21.6252 55.6138L21.7523 55.705C21.71 56.6509 21.6845 57.8207 21.6845 59.2063V62.6993C21.6845 63.5953 21.8626 64.2508 22.2271 64.6573C22.5831 65.0639 23.0917 65.263 23.7529 65.263C24.4904 65.263 25.1601 65.1054 25.7705 64.7984V59.9696C25.7705 58.9076 25.7535 58.0365 25.7281 57.3478L24.1598 56.9496L24.092 56.4849C25.9231 56.2028 27.5592 55.9125 28.9918 55.6138L29.1274 55.705C29.0766 56.6758 29.0426 57.8622 29.0426 59.281C29.0426 62.0272 29.0426 63.7032 29.0511 64.3089C29.0511 64.6075 29.085 64.8565 29.1189 65.039C29.1613 65.2215 29.2291 65.3626 29.3393 65.4621C29.4495 65.5617 29.6106 65.6281 29.8225 65.6695C30.0345 65.711 30.3396 65.7359 30.7296 65.7442L30.7889 66.242C29.6784 66.6237 28.7205 66.8062 27.9152 66.8062C26.881 66.8062 26.2028 66.3997 25.8722 65.5783L25.8807 65.5866Z" fill="#FF820F"/>
<path d="M43.1486 65.7442C41.716 66.4578 40.2156 66.8145 38.6304 66.8145C36.7484 66.8145 35.2056 66.3582 34.0103 65.4456C32.8151 64.5329 32.2217 63.1888 32.2217 61.4133C32.2217 59.6378 32.7981 58.3352 33.9425 57.2649C35.0869 56.1946 36.5535 55.6636 38.3252 55.6636C39.8765 55.6636 41.0802 56.0701 41.9279 56.8915C42.7757 57.7129 43.1995 58.8413 43.1995 60.2849C43.1995 60.5006 43.191 60.733 43.1656 60.9653H35.7566C35.7566 62.4836 36.1381 63.5788 36.901 64.2425C37.664 64.9063 38.9101 65.2381 40.6479 65.2381C41.4871 65.2381 42.2925 65.1635 43.0554 65.0224L43.1486 65.7359V65.7442ZM39.673 59.8701V59.5963C39.673 58.5675 39.5374 57.8291 39.2746 57.381C39.0118 56.933 38.5965 56.709 38.0539 56.709C37.4012 56.709 36.8756 57.016 36.4857 57.6299C36.0957 58.2439 35.8668 58.9906 35.8075 59.8618H39.6815L39.673 59.8701Z" fill="#FF820F"/>
<path d="M51.6428 56.9413C51.1596 56.8251 50.634 56.767 50.0661 56.767C49.3625 56.767 48.786 56.8915 48.3452 57.1321C47.9044 57.3727 47.6755 57.7212 47.6755 58.1609C47.6755 58.5011 47.7688 58.7666 47.9637 58.9491C48.1587 59.1317 48.4893 59.3059 48.964 59.4635L50.8205 60.1024C51.9225 60.4757 52.7363 60.9238 53.245 61.4465C53.7536 61.9692 54.0079 62.5831 54.0079 63.2884C54.0079 64.4001 53.5332 65.263 52.5753 65.877C51.6174 66.4909 50.3712 66.7979 48.8114 66.7979C47.5145 66.7979 46.2344 66.5407 44.9883 66.018C45.2511 65.0058 45.463 64.0185 45.641 63.0726L46.2344 62.9814L47.0652 65.4538C47.5399 65.6115 48.1248 65.6945 48.8369 65.6945C49.5066 65.6945 50.0576 65.57 50.473 65.3211C50.8883 65.0722 51.1003 64.7237 51.1003 64.2757C51.1003 63.9023 50.9731 63.5953 50.7273 63.3381C50.473 63.0809 49.9728 62.832 49.2268 62.5831L47.8112 62.1102C46.9041 61.8032 46.2259 61.3967 45.7682 60.8989C45.3104 60.4011 45.0815 59.7954 45.0815 59.0819C45.0815 57.9784 45.5223 57.1321 46.4124 56.543C47.3025 55.954 48.5232 55.6553 50.083 55.6553C51.3631 55.6553 52.5244 55.8378 53.5586 56.2112C53.3297 57.1985 53.1263 58.136 52.9652 59.0238L52.3294 59.1151L51.6343 56.9413H51.6428Z" fill="#FF820F"/>
<path d="M60.1531 57.3063C60.1107 59.6626 60.0853 61.6622 60.0853 63.305C60.0853 64.0683 60.204 64.5993 60.4413 64.8897C60.6787 65.18 61.1365 65.3294 61.8231 65.3294C62.3487 65.3294 62.9166 65.2962 63.5355 65.2381L63.6287 65.9185C62.3995 66.5075 61.2551 66.8062 60.187 66.8062C59.1189 66.8062 58.2712 66.5822 57.6778 66.1425C57.0844 65.7027 56.7877 65.0307 56.7877 64.1429C56.7877 62.5665 56.8131 60.2766 56.8555 57.2566L55.2873 56.8583L55.1855 56.2443L57.1183 56.0701L58.2203 53.4068C58.8731 53.2907 59.475 53.1828 60.0175 53.075L60.1786 53.1579C60.1531 54.0706 60.1446 55.0413 60.1446 56.0701H63.3914V57.3063H60.1446H60.1531Z" fill="#FF820F"/>
<path d="M69.3173 63.0063C69.3173 63.4626 69.3173 63.8692 69.3173 64.2342C69.3173 64.5993 69.3258 64.9229 69.3343 65.2216C69.3343 65.4539 69.4445 65.6032 69.6394 65.6613L70.928 66.0346L70.9619 66.5242C70.0463 66.4993 69.1223 66.491 68.2068 66.491C67.2913 66.491 66.3164 66.4993 65.3331 66.5242L65.2907 66.0346L66.7149 65.6115C66.9098 65.5617 67.0116 65.4373 67.0285 65.263C67.0285 64.9644 67.0455 64.6242 67.0455 64.2508C67.0455 63.8775 67.0455 63.4626 67.0455 63.0063V53.8051C67.0455 53.4234 67.0455 53.075 67.0455 52.7597C67.0455 52.4527 67.037 52.1706 67.0285 51.9217C67.0285 51.7226 66.9268 51.5981 66.7488 51.5401L65.3077 51.1003L65.2822 50.6108C66.2825 50.644 67.2489 50.6523 68.2068 50.6523C68.3933 50.6523 68.6307 50.6523 68.9189 50.6357C69.2071 50.6191 69.5632 50.6108 69.9701 50.5942C70.3939 50.5776 70.7415 50.5693 71.0212 50.561C71.301 50.561 71.5214 50.5527 71.6909 50.5527C73.4711 50.5527 74.8105 50.8763 75.7006 51.5318C76.5907 52.1789 77.0399 53.1331 77.0399 54.3776C77.0399 55.506 76.7348 56.4186 76.1244 57.1155C75.5141 57.8125 74.5816 58.3518 73.327 58.7334C73.8187 59.4635 74.2764 60.1605 74.6918 60.8408C75.1072 61.5212 75.4886 62.1351 75.8532 62.6993C76.2092 63.2635 76.5398 63.7613 76.8365 64.1927C77.1332 64.6242 77.4129 64.9644 77.6673 65.2133C77.7944 65.346 77.93 65.4539 78.0572 65.5451C78.1844 65.6364 78.3285 65.7194 78.4726 65.7774C78.6167 65.8355 78.7693 65.8936 78.9219 65.9351C79.0829 65.9766 79.2525 66.0263 79.4474 66.0678L79.4813 66.5656C78.9219 66.632 78.4556 66.6652 78.0826 66.6652C77.769 66.6652 77.4892 66.6652 77.2434 66.6403C77.006 66.6237 76.7856 66.5988 76.5991 66.549C76.4126 66.5076 76.2431 66.4495 76.0905 66.3748C75.9379 66.3001 75.7853 66.2089 75.6412 66.101C75.3191 65.8687 75.0054 65.5285 74.6918 65.0888C74.3781 64.6491 74.0645 64.143 73.7254 63.5871C73.3948 63.0312 73.0472 62.4338 72.6827 61.8033C72.3267 61.1727 71.9452 60.5504 71.5468 59.9448C71.4281 59.7622 71.3264 59.6212 71.2501 59.5133C71.1653 59.4055 71.0806 59.3225 70.9788 59.2644C70.8771 59.2063 70.7669 59.1649 70.6397 59.14C70.5126 59.1151 70.343 59.0985 70.1396 59.0985L69.3258 59.0736V63.0063H69.3173ZM69.3173 58.219C69.792 58.2439 70.2244 58.2522 70.6228 58.2522C71.9622 58.2522 72.937 57.9784 73.5643 57.4225C74.1832 56.8666 74.4968 55.9955 74.4968 54.809C74.4968 53.6226 74.2001 52.8178 73.6067 52.2868C73.0133 51.7558 72.0809 51.4903 70.8178 51.4903C70.5974 51.4903 70.3685 51.4903 70.1226 51.5152C69.8768 51.5318 69.6055 51.5567 69.3258 51.5815V58.219H69.3173Z" fill="#024063"/>
<path d="M89.3481 65.6862C88.6954 66.0844 88.0172 66.3748 87.3221 66.5491C86.627 66.7233 85.9827 66.8063 85.3893 66.8063C83.6854 66.8063 82.3121 66.3333 81.2694 65.3792C80.2183 64.4334 79.7012 63.1142 79.7012 61.4299C79.7012 59.7456 80.1928 58.3767 81.1677 57.3147C82.1426 56.2444 83.448 55.7134 85.0841 55.7134C86.4574 55.7134 87.517 56.1116 88.28 56.9081C89.0429 57.7046 89.4244 58.8081 89.4244 60.2186C89.4244 60.4343 89.4159 60.65 89.3905 60.8657H82.0748C82.0748 62.4919 82.4647 63.6535 83.2446 64.3504C84.0245 65.0473 85.2452 65.3958 86.9067 65.3958C87.6527 65.3958 88.4411 65.3294 89.2803 65.1884L89.3481 65.6779V65.6862ZM87.0423 59.9199V59.5797C87.0423 58.5094 86.8728 57.7378 86.5252 57.2732C86.1777 56.8086 85.669 56.5845 84.9909 56.5845C84.0923 56.5845 83.4057 56.9081 82.9225 57.5636C82.4478 58.2107 82.1765 58.9989 82.1171 59.9199H87.0423Z" fill="#024063"/>
<path d="M90.6541 56.8915L90.5947 56.5099C91.8917 56.2693 93.1209 56.0038 94.2823 55.7134L94.4009 55.7963V56.9081C95.5877 56.1116 96.7406 55.7134 97.8596 55.7134C99.3092 55.7134 100.454 56.1863 101.31 57.1238C102.166 58.0614 102.59 59.2893 102.59 60.791C102.59 62.6412 102.039 64.1098 100.945 65.1884C99.8517 66.267 98.2919 66.8063 96.2744 66.8063C95.6725 66.8063 95.0537 66.7482 94.4094 66.632V69.1128C94.4094 69.8678 94.4094 70.3988 94.4348 70.6975C94.4518 70.9215 94.5535 71.0625 94.7485 71.104L96.2659 71.5272L96.2998 71.9918C95.0961 71.9669 94.1127 71.9586 93.3498 71.9586C92.5868 71.9586 91.6883 71.9669 90.6541 71.9918L90.6117 71.5272L91.9426 71.1455C92.1291 71.0957 92.2223 70.9713 92.2308 70.797C92.2478 70.2411 92.2562 69.4115 92.2562 68.2914V63.6783C92.2562 60.3264 92.2393 58.2107 92.2138 57.323L90.671 56.8915H90.6541ZM94.4009 65.6115C95.0706 65.7526 95.7234 65.8272 96.3422 65.8272C97.6222 65.8272 98.5886 65.4373 99.2329 64.6491C99.8771 63.8609 100.208 62.7325 100.208 61.2723C100.208 59.8867 99.9026 58.8413 99.2837 58.1444C98.6649 57.4474 97.7833 57.0907 96.6219 57.0907C95.7912 57.0907 95.0452 57.2566 94.4009 57.5885V65.6198V65.6115Z" fill="#024063"/>
<path d="M115.356 61.0316C115.356 62.7574 114.822 64.1513 113.763 65.2133C112.703 66.2753 111.347 66.8063 109.711 66.8063C108.075 66.8063 106.812 66.3084 105.828 65.3045C104.845 64.3006 104.345 62.9897 104.345 61.3718C104.345 59.7539 104.862 58.3518 105.896 57.2898C106.93 56.2278 108.295 55.7051 109.999 55.7051C111.61 55.7051 112.907 56.1946 113.881 57.1653C114.865 58.1361 115.356 59.4221 115.356 61.0316ZM106.718 61.1312C106.718 62.5417 106.99 63.6949 107.524 64.5827C108.066 65.4705 108.863 65.9185 109.923 65.9185C110.914 65.9185 111.669 65.5285 112.195 64.7403C112.712 63.9604 112.974 62.7989 112.974 61.264C112.974 59.8203 112.703 58.6836 112.152 57.8457C111.61 57.016 110.813 56.6011 109.77 56.6011C108.787 56.6011 108.032 56.9745 107.498 57.7212C106.964 58.4679 106.71 59.6046 106.71 61.1229L106.718 61.1312Z" fill="#024063"/>
<path d="M116.941 56.5099C118.23 56.2693 119.459 56.0038 120.629 55.7134L120.748 55.7963V57.1238C122.18 56.1863 123.579 55.7134 124.952 55.7134L125.012 55.7798C124.791 56.9081 124.571 58.078 124.35 59.281L123.884 59.364C123.664 58.7251 123.46 58.2024 123.257 57.8125C123.053 57.4225 122.74 57.2317 122.307 57.2317C121.875 57.2317 121.366 57.4225 120.739 57.7959V62.7076C120.739 63.8858 120.739 64.732 120.765 65.2382C120.765 65.4456 120.866 65.57 121.053 65.6198L122.596 66.0512L122.63 66.5159C121.426 66.491 120.442 66.4827 119.68 66.4827C118.917 66.4827 118.018 66.491 116.984 66.5159L116.941 66.0512L118.289 65.6696C118.476 65.6115 118.569 65.4954 118.577 65.3211C118.577 64.9975 118.586 64.5329 118.586 63.9273V60.0609C118.586 58.8247 118.569 57.912 118.544 57.3064L117.001 56.8998L116.941 56.5182V56.5099Z" fill="#024063"/>
<path d="M129.564 57.2151C129.521 59.7705 129.496 61.8281 129.496 63.3962C129.496 64.1844 129.615 64.7237 129.852 65.0224C130.089 65.3211 130.547 65.4704 131.217 65.4704C131.751 65.4704 132.446 65.4041 133.302 65.263L133.37 65.7774C132.031 66.4329 130.835 66.7647 129.793 66.7647C128.937 66.7647 128.301 66.5407 127.885 66.101C127.47 65.6613 127.258 64.9892 127.258 64.1015C127.258 62.6329 127.283 60.3181 127.343 57.1487L125.741 56.767L125.673 56.3024L127.462 56.1531L128.275 53.4068C128.716 53.2907 129.123 53.1828 129.488 53.075L129.606 53.1579C129.581 54.0706 129.572 54.9251 129.572 55.7216V56.1448H133.065V57.2234H129.572L129.564 57.2151Z" fill="#024063"/>
<path d="M134.769 65.3625C134.913 65.3625 135.031 65.404 135.125 65.4953C135.218 65.5866 135.26 65.7027 135.26 65.8438C135.26 65.9848 135.218 66.101 135.125 66.1922C135.031 66.2835 134.913 66.325 134.769 66.325C134.616 66.325 134.497 66.2835 134.404 66.1922C134.311 66.101 134.269 65.9848 134.269 65.8438C134.269 65.7027 134.311 65.5866 134.404 65.4953C134.497 65.404 134.616 65.3625 134.769 65.3625Z" fill="#024063"/>
<path d="M136.066 62.6494C136.549 62.5581 136.998 62.4668 137.414 62.3673L137.448 62.3922C137.431 62.7406 137.422 63.1306 137.422 63.5537V65.1135C137.422 65.4371 137.422 65.6611 137.422 65.7856C137.422 65.8602 137.464 65.91 137.524 65.9266L138.007 66.0677V66.2336C137.634 66.2336 137.312 66.2253 137.032 66.2253C136.752 66.2253 136.439 66.2253 136.066 66.2336L136.049 66.0677L136.532 65.9266C136.591 65.9017 136.634 65.8602 136.634 65.8022C136.634 65.6943 136.634 65.5201 136.634 65.2712V63.9188C136.634 63.562 136.634 63.2384 136.617 62.9398L136.066 62.7904L136.049 62.6494H136.066ZM137.465 60.9319C137.465 61.073 137.422 61.1891 137.329 61.2804C137.236 61.3716 137.117 61.4131 136.973 61.4131C136.829 61.4131 136.719 61.3716 136.634 61.2887C136.549 61.2057 136.507 61.0979 136.507 60.9568C136.507 60.8075 136.549 60.6996 136.642 60.6083C136.735 60.5171 136.854 60.4839 136.998 60.4839C137.134 60.4839 137.244 60.5254 137.329 60.6C137.414 60.6747 137.456 60.7909 137.456 60.9319H137.465Z" fill="#024063"/>
<path d="M138.465 62.6493C138.931 62.5663 139.364 62.4667 139.779 62.3672L139.822 62.3921V62.865C140.305 62.5331 140.754 62.3672 141.161 62.3672C141.551 62.3672 141.865 62.475 142.085 62.6908C142.305 62.9065 142.416 63.2135 142.416 63.6034V65.0305C142.416 65.3706 142.416 65.6195 142.416 65.7772C142.416 65.8519 142.458 65.9016 142.526 65.9182L142.984 66.0593V66.2252C142.627 66.2252 142.314 66.2169 142.034 66.2169C141.754 66.2169 141.458 66.2169 141.127 66.2252L141.11 66.0593L141.525 65.9431C141.585 65.9182 141.627 65.8768 141.627 65.8187C141.627 65.7772 141.627 65.6942 141.627 65.5615V63.7942C141.627 63.4624 141.542 63.2218 141.381 63.0807C141.22 62.9397 140.983 62.865 140.661 62.865C140.381 62.865 140.093 62.9397 139.796 63.0973V64.8645C139.796 65.2047 139.796 65.5117 139.796 65.7938C139.796 65.8685 139.83 65.9099 139.889 65.9348L140.322 66.0593V66.2252C139.991 66.2252 139.677 66.2169 139.406 66.2169C139.135 66.2169 138.813 66.2169 138.44 66.2252L138.423 66.0593L138.915 65.9182C138.974 65.8933 139.008 65.8519 139.008 65.7938C139.008 65.6196 139.008 65.4536 139.008 65.296V63.9104C139.008 63.5536 139.008 63.2301 138.991 62.9231L138.44 62.7737L138.423 62.6327L138.465 62.6493Z" fill="#024063"/>
</g>
<defs>
<clipPath id="clip0_451_1952">
<rect width="143" height="72" fill="white"/>
</clipPath>
</defs>
</svg>
