<svg width="89" height="59" viewBox="0 0 89 59" fill="none" xmlns="http://www.w3.org/2000/svg">
<rect width="89" height="59" fill="#979797"/>
<g id="home" clip-path="url(#clip0_0_1)">
<rect width="1920" height="5801" transform="translate(-1034 -2690)" fill="white"/>
<g id="Group 1171275746">
<rect id="Rectangle 57" x="-1034" y="-315" width="1920" height="830" fill="#FFF8F2"/>
<path id="Rectangle 58" d="M-85 -77H886V515H-85V-77Z" fill="white"/>
<g id="Group">
<path id="Vector" d="M41.2002 40.426C40.8196 40.1375 40.3829 40.2596 39.9799 40.2596C36.0613 40.2485 32.1428 40.2263 28.2242 40.2596C27.4741 40.2596 27.2502 40.0266 27.2614 39.3165C27.295 37.2861 27.239 35.2557 27.295 33.2253C27.4069 29.2644 30.4858 26.3907 34.5051 26.3907C45.3427 26.3907 56.1803 26.4018 67.0179 26.3907C71.0596 26.3907 73.9705 23.2175 73.3211 19.5894C72.8509 16.9155 70.4326 14.7631 67.7232 14.7187C64.6891 14.6632 61.655 14.7187 58.621 14.6854C57.7589 14.6743 57.6245 15.0959 57.6357 15.7838C57.6581 18.025 57.6245 20.2662 57.6693 22.4964C57.6693 23.0844 57.535 23.3063 56.9192 23.3063C52.9335 23.2841 48.9366 23.2952 44.9508 23.3063C43.8984 23.3063 43.8536 22.4853 43.6969 21.7974C43.5961 21.3647 43.6633 20.8876 43.6633 20.4327C43.6633 14.3859 43.6633 8.32795 43.6633 2.28114C43.6633 0.849873 43.6633 0.849873 45.1524 0.849873C52.5304 0.849873 59.9085 0.816588 67.2866 0.860968C75.1236 0.916444 81.1358 4.36701 84.92 11.1017C88.6147 17.67 88.2788 24.4047 84.4386 30.8842C82.7704 33.7024 80.4081 35.9214 77.5308 37.5413C76.7582 37.974 76.6463 38.3179 77.0941 39.0724C80.632 44.9972 84.1251 50.9441 87.6406 56.8911C87.7862 57.1352 87.9093 57.3793 88.0437 57.6234C87.8085 57.9895 87.4503 57.8453 87.1704 57.8453C82.6473 57.8564 78.1353 57.8453 73.6122 57.8675C72.9293 57.8675 72.5374 57.6566 72.1903 57.0575C69.0891 51.7763 65.9319 46.5172 62.8306 41.2248C62.4388 40.548 62.0133 40.1486 61.1736 40.2374C59.9197 40.3705 58.6434 40.0266 57.4006 40.4371C56.9752 40.2152 56.5161 40.2485 56.0571 40.2596C51.4108 40.2596 46.7646 40.2818 42.1183 40.2818C41.7936 40.2818 41.4913 40.2818 41.189 40.426H41.2002Z" fill="#FF820F"/>
<path id="Vector_2" d="M41.2002 40.426C41.4913 40.2817 41.8048 40.2817 42.1295 40.2817C46.7757 40.2817 51.422 40.2596 56.0683 40.2596C56.5273 40.2596 56.9864 40.2152 57.4118 40.4371C53.1798 50.3672 45.7345 56.5138 35.0649 58.4888C22.4471 60.8298 10.1653 54.9827 3.83964 43.9875C-4.73638 29.0646 1.60047 9.73701 17.409 2.65836C24.6191 -0.570309 31.9972 -0.77002 39.4984 1.58213C40.2821 1.82623 40.5732 2.18127 40.562 3.05778C40.5061 7.93961 40.5396 12.8325 40.5396 17.8475C39.2857 17.0376 38.2221 16.1611 36.9682 15.5508C30.844 12.5441 23.8242 13.5093 18.9093 18.1027C14.0838 22.6073 12.5948 29.5861 15.181 35.6329C17.7897 41.7574 23.925 45.563 30.6761 45.208C34.8074 44.9861 38.2893 43.3107 41.2114 40.4371L41.2002 40.426Z" fill="#024063"/>
<g id="Group_2">
<path id="Vector_3" fill-rule="evenodd" clip-rule="evenodd" d="M26.5114 22.9512C25.5486 22.9512 24.7649 23.739 24.7649 24.6931V31.0728C24.7649 31.7052 25.2911 32.2267 25.9293 32.2267H26.5114V39.727C26.5114 40.0487 26.7801 40.3039 27.0936 40.3039H30.5979C30.9226 40.3039 31.1801 40.0376 31.1801 39.727V37.9074H29.3776C28.8738 37.9074 28.4707 37.4968 28.4707 37.0087V33.2252C28.4707 32.726 28.885 32.3265 29.3776 32.3265H31.1465C31.1465 31.9715 31.1017 31.6941 31.3816 31.4167C31.5272 31.2725 31.7175 31.1838 31.9414 31.1838C32.2213 31.1838 32.2213 31.6165 31.9414 31.6165C31.7511 31.6165 31.5832 31.7718 31.5832 31.9715V32.2267H31.7623C32.4005 32.2267 32.9267 31.7052 32.9267 31.0728V24.6931C32.9267 23.739 32.143 22.9623 31.1801 22.9512H30.2397L29.5119 23.6724L28.8402 23.0067L28.1684 23.6724L27.4407 22.9512H26.5002H26.5114ZM28.8514 18.3135C29.9822 18.3135 30.9002 19.2233 30.9002 20.3439C30.9002 21.4645 29.9822 22.3743 28.8514 22.3743C27.7206 22.3743 26.8025 21.4645 26.8025 20.3439C26.8025 19.2233 27.7206 18.3135 28.8514 18.3135Z" fill="#024063"/>
<path id="Vector_4" d="M34.942 32.748H29.3889C29.1314 32.748 28.9075 32.9589 28.9075 33.2251V37.0086C28.9075 37.2637 29.1202 37.4856 29.3889 37.4856H34.942C35.1995 37.4856 35.4235 37.2748 35.4235 37.0086V33.2251C35.4235 32.9699 35.2107 32.748 34.942 32.748Z" fill="#024063"/>
</g>
</g>
</g>
</g>
<defs>
<clipPath id="clip0_0_1">
<rect width="1920" height="5801" fill="white" transform="translate(-1034 -2690)"/>
</clipPath>
</defs>
</svg>
