<svg width="189" height="96" viewBox="0 0 189 96" fill="none" xmlns="http://www.w3.org/2000/svg">
<g clip-path="url(#clip0_186_546)">
<path d="M84.5676 40.3004C84.1867 40.0127 83.7498 40.1344 83.3464 40.1344C79.425 40.1234 75.5036 40.1012 71.5822 40.1344C70.8316 40.1344 70.6075 39.9021 70.6187 39.1941C70.6523 37.1697 70.5963 35.1452 70.6523 33.1208C70.7643 29.1715 73.8454 26.3063 77.8677 26.3063C88.7131 26.3063 99.5586 26.3174 110.404 26.3063C114.449 26.3063 117.362 23.1425 116.712 19.5251C116.241 16.859 113.821 14.7129 111.11 14.6686C108.074 14.6133 105.037 14.6686 102.001 14.6354C101.138 14.6244 101.004 15.0448 101.015 15.7306C101.038 17.9652 101.004 20.1999 101.049 22.4234C101.049 23.0097 100.914 23.231 100.298 23.231C96.3094 23.2089 92.3096 23.2199 88.321 23.231C87.2678 23.231 87.223 22.4124 87.0661 21.7265C86.9653 21.295 87.0325 20.8194 87.0325 20.3658C87.0325 14.3368 87.0325 8.29666 87.0325 2.26762C87.0325 0.840561 87.0325 0.840561 88.5227 0.840561C95.9061 0.840561 103.289 0.807373 110.673 0.851623C118.516 0.906935 124.532 4.34736 128.319 11.0623C132.017 17.6112 131.68 24.3262 127.837 30.7866C126.168 33.5965 123.804 35.809 120.925 37.4241C120.151 37.8556 120.039 38.1985 120.488 38.9507C124.028 44.8581 127.524 50.7876 131.042 56.717C131.187 56.9604 131.311 57.2038 131.445 57.4472C131.21 57.8122 130.851 57.6684 130.571 57.6684C126.045 57.6795 121.53 57.6684 117.003 57.6905C116.32 57.6905 115.928 57.4804 115.58 56.883C112.477 51.6172 109.317 46.3736 106.214 41.0969C105.822 40.422 105.396 40.0238 104.556 40.1123C103.301 40.245 102.023 39.9021 100.78 40.3114C100.354 40.0902 99.8947 40.1234 99.4353 40.1344C94.7857 40.1344 90.136 40.1565 85.4864 40.1565C85.1615 40.1565 84.8589 40.1565 84.5564 40.3004H84.5676Z" fill="#FF820F"/>
<path d="M84.5676 40.3003C84.8589 40.1565 85.1727 40.1565 85.4976 40.1565C90.1472 40.1565 94.7969 40.1344 99.4465 40.1344C99.9059 40.1344 100.365 40.0901 100.791 40.3114C96.5559 50.2123 89.1053 56.3409 78.4279 58.31C65.801 60.6442 53.5102 54.8143 47.18 43.8514C38.5977 28.9724 44.9392 9.70155 60.7592 2.64371C67.9745 -0.575469 75.358 -0.774593 82.8646 1.57065C83.6489 1.81402 83.9402 2.16802 83.929 3.04195C83.873 7.90944 83.9066 12.788 83.9066 17.7882C82.6518 16.9807 81.5874 16.1067 80.3325 15.4983C74.204 12.5004 67.1791 13.4628 62.2605 18.0426C57.4316 22.534 55.9415 29.4923 58.5296 35.5213C61.1401 41.6278 67.2799 45.4222 74.0359 45.0682C78.1702 44.847 81.6546 43.1766 84.5788 40.3114L84.5676 40.3003Z" fill="#024063"/>
<path fill-rule="evenodd" clip-rule="evenodd" d="M69.8681 22.877C68.9045 22.877 68.1202 23.6625 68.1202 24.6138V30.9748C68.1202 31.6053 68.6468 32.1252 69.2855 32.1252H69.8681V39.6035C69.8681 39.9243 70.137 40.1787 70.4507 40.1787H73.9575C74.2824 40.1787 74.5401 39.9132 74.5401 39.6035V37.7892H72.7363C72.2321 37.7892 71.8288 37.3799 71.8288 36.8932V33.1209C71.8288 32.6231 72.2433 32.2248 72.7363 32.2248H74.5065C74.5065 31.8708 74.4617 31.5942 74.7418 31.3177C74.8874 31.1739 75.0779 31.0854 75.302 31.0854C75.5821 31.0854 75.5821 31.5168 75.302 31.5168C75.1115 31.5168 74.9435 31.6717 74.9435 31.8708V32.1252H75.1227C75.7614 32.1252 76.2879 31.6053 76.2879 30.9748V24.6138C76.2879 23.6625 75.5037 22.8881 74.5401 22.877H73.599L72.8707 23.5961L72.1985 22.9323L71.5263 23.5961L70.798 22.877H69.8569H69.8681ZM72.2097 18.2529C73.3413 18.2529 74.26 19.1601 74.26 20.2774C74.26 21.3947 73.3413 22.3018 72.2097 22.3018C71.0781 22.3018 70.1594 21.3947 70.1594 20.2774C70.1594 19.1601 71.0781 18.2529 72.2097 18.2529Z" fill="#024063"/>
<path d="M78.3047 32.645H72.7475C72.4898 32.645 72.2657 32.8552 72.2657 33.1207V36.893C72.2657 37.1474 72.4786 37.3687 72.7475 37.3687H78.3047C78.5624 37.3687 78.7865 37.1585 78.7865 36.893V33.1207C78.7865 32.8663 78.5736 32.645 78.3047 32.645Z" fill="#024063"/>
<path d="M17.3214 73.0564L16.4587 73.1781L15.3831 69.0076C14.5204 68.731 13.5232 68.5983 12.3804 68.5983C10.0948 68.5983 8.31336 69.439 7.0249 71.1205C5.74764 72.802 5.09781 75.103 5.09781 78.0345C5.09781 80.9661 5.73644 83.4883 7.0249 85.203C8.31336 86.9177 10.1172 87.7695 12.4364 87.7695C12.9854 87.7695 13.5792 87.7252 14.2179 87.6367V83.6543C14.2179 83.1454 14.2179 82.6918 14.2179 82.2825C14.2179 81.8732 14.2067 81.486 14.1954 81.1431C14.1954 80.8776 14.061 80.7117 13.8145 80.6453L11.7306 80.059L11.6858 79.3067C13.1311 79.3399 14.7108 79.351 16.4026 79.351C18.0944 79.351 19.6406 79.3399 20.8954 79.3067L20.9851 80.059L19.1588 80.5568C18.9123 80.6231 18.7779 80.778 18.7555 81.0103C18.7555 81.4086 18.7331 81.829 18.7331 82.2383C18.7331 82.6586 18.7331 83.1122 18.7331 83.5879V88.3558L18.621 88.4664C16.425 88.9642 14.3411 89.2076 12.358 89.2076C8.63827 89.2076 5.64681 88.2673 3.39481 86.3978C1.1316 84.5171 0 81.9064 0 78.5434C0 74.9702 1.1316 72.1825 3.39481 70.1581C5.65801 68.1336 8.73911 67.127 12.6493 67.127C14.5316 67.127 16.3802 67.3371 18.1953 67.7465L18.3073 67.8792L17.3214 73.0564Z" fill="#FF820F"/>
<path d="M34.2058 87.4484C32.7045 88.5326 31.0687 89.0857 29.2984 89.0857C27.6403 89.0857 26.3966 88.6874 25.5563 87.8799C24.716 87.0723 24.3015 85.9439 24.3015 84.4726V81.2645C24.3015 79.1073 24.2791 77.5144 24.2455 76.4966L22.0495 75.9324L21.9598 75.3129C24.4583 74.9368 26.6655 74.5496 28.5814 74.1514L28.7495 74.2731C28.6934 75.5342 28.6598 77.094 28.6598 78.9414V83.5987C28.6598 84.7935 28.8951 85.6674 29.3769 86.2094C29.8474 86.7515 30.5197 87.017 31.3936 87.017C32.3683 87.017 33.2535 86.8068 34.0601 86.3975V79.9592C34.0601 78.5432 34.0377 77.3816 34.0041 76.4634L31.9314 75.9324L31.8418 75.3129C34.2618 74.9368 36.4242 74.5496 38.3177 74.1514L38.4969 74.2731C38.4297 75.5674 38.3849 77.1493 38.3849 79.041C38.3849 82.7026 38.3849 84.9373 38.3961 85.7448C38.3961 86.1431 38.4409 86.4749 38.4857 86.7183C38.5417 86.9617 38.6314 87.1498 38.777 87.2825C38.9227 87.4153 39.1355 87.5038 39.4156 87.5591C39.6957 87.6144 40.0991 87.6476 40.6145 87.6586L40.6929 88.3224C39.2252 88.8312 37.9591 89.0746 36.8947 89.0746C35.5279 89.0746 34.6315 88.5326 34.1946 87.4374L34.2058 87.4484Z" fill="#FF820F"/>
<path d="M57.0282 87.6587C55.1348 88.61 53.1517 89.0857 51.0565 89.0857C48.5692 89.0857 46.5301 88.4773 44.9503 87.2604C43.3706 86.0435 42.5863 84.2514 42.5863 81.8841C42.5863 79.5167 43.3482 77.7799 44.8607 76.3528C46.3733 74.9258 48.3115 74.2178 50.6532 74.2178C52.7035 74.2178 54.2945 74.7598 55.4149 75.855C56.5353 76.9502 57.0955 78.4547 57.0955 80.3796C57.0955 80.6672 57.0843 80.9769 57.0506 81.2867H47.2584C47.2584 83.3111 47.7625 84.7714 48.7709 85.6564C49.7793 86.5414 51.4262 86.9839 53.7231 86.9839C54.8323 86.9839 55.8966 86.8843 56.905 86.6962L57.0282 87.6476V87.6587ZM52.4346 79.8264V79.4614C52.4346 78.0896 52.2553 77.1051 51.908 76.5077C51.5607 75.9103 51.0117 75.6116 50.2946 75.6116C49.4319 75.6116 48.7373 76.021 48.2219 76.8396C47.7065 77.6582 47.404 78.6538 47.3256 79.8154H52.4458L52.4346 79.8264Z" fill="#FF820F"/>
<path d="M68.2547 75.9217C67.6161 75.7668 66.9214 75.6894 66.1708 75.6894C65.2409 75.6894 64.479 75.8553 63.8964 76.1761C63.3138 76.497 63.0113 76.9616 63.0113 77.5479C63.0113 78.0014 63.1345 78.3555 63.3922 78.5988C63.6499 78.8422 64.0868 79.0745 64.7143 79.2847L67.1679 80.1365C68.6245 80.6343 69.7 81.2317 70.3723 81.9286C71.0445 82.6256 71.3806 83.4442 71.3806 84.3845C71.3806 85.8669 70.7532 87.0174 69.4872 87.836C68.2211 88.6546 66.5741 89.0639 64.5126 89.0639C62.7984 89.0639 61.1066 88.721 59.4596 88.024C59.8069 86.6744 60.087 85.358 60.3223 84.0969L61.1066 83.9752L62.2046 87.2718C62.832 87.482 63.6051 87.5926 64.5462 87.5926C65.4313 87.5926 66.1596 87.4267 66.7086 87.0948C67.2576 86.7629 67.5377 86.2983 67.5377 85.7009C67.5377 85.2031 67.3696 84.7938 67.0447 84.4509C66.7086 84.1079 66.0475 83.7761 65.0616 83.4442L63.1905 82.8136C61.9917 82.4043 61.0954 81.8622 60.4904 81.1985C59.8853 80.5348 59.5828 79.7272 59.5828 78.7758C59.5828 77.3045 60.1654 76.1761 61.3419 75.3907C62.5183 74.6053 64.1317 74.207 66.1932 74.207C67.885 74.207 69.4199 74.4504 70.7868 74.9482C70.4843 76.2646 70.2154 77.5147 70.0025 78.6984L69.1622 78.8201L68.2435 75.9217H68.2547Z" fill="#FF820F"/>
<path d="M79.5034 76.4085C79.4474 79.5502 79.4138 82.2162 79.4138 84.4066C79.4138 85.4244 79.5706 86.1324 79.8843 86.5195C80.1981 86.9067 80.8031 87.1058 81.7106 87.1058C82.4052 87.1058 83.1559 87.0616 83.9738 86.9842L84.097 87.8913C82.4725 88.6767 80.9599 89.075 79.5482 89.075C78.1365 89.075 77.0161 88.7763 76.2318 88.19C75.4476 87.6037 75.0554 86.7076 75.0554 85.5239C75.0554 83.422 75.089 80.3688 75.1451 76.3421L73.0723 75.8111L72.9379 74.9925L75.4924 74.7601L76.9489 71.2091C77.8116 71.0542 78.6071 70.9104 79.3241 70.7666L79.537 70.8772C79.5034 72.0941 79.4922 73.3884 79.4922 74.7601H83.7833V76.4085H79.4922H79.5034Z" fill="#FF820F"/>
<path d="M91.615 84.0081C91.615 84.6165 91.615 85.1586 91.615 85.6453C91.615 86.1321 91.6262 86.5635 91.6374 86.9617C91.6374 87.2715 91.783 87.4706 92.0407 87.5481L93.7437 88.0459L93.7885 88.6986C92.5785 88.6654 91.3573 88.6543 90.1472 88.6543C88.9372 88.6543 87.6487 88.6654 86.3491 88.6986L86.2931 88.0459L88.1753 87.4817C88.433 87.4153 88.5675 87.2494 88.5899 87.0171C88.5899 86.6188 88.6123 86.1653 88.6123 85.6674C88.6123 85.1696 88.6123 84.6165 88.6123 84.0081V71.7398C88.6123 71.2309 88.6123 70.7663 88.6123 70.3459C88.6123 69.9366 88.6011 69.5605 88.5899 69.2286C88.5899 68.9631 88.4554 68.7972 88.2201 68.7198L86.3155 68.1334L86.2819 67.4808C87.6039 67.525 88.8812 67.5361 90.1472 67.5361C90.3937 67.5361 90.7074 67.5361 91.0884 67.5139C91.4693 67.4918 91.9399 67.4808 92.4777 67.4586C93.0379 67.4365 93.4972 67.4254 93.867 67.4144C94.2367 67.4144 94.528 67.4033 94.7521 67.4033C97.1049 67.4033 98.8751 67.8348 100.052 68.7087C101.228 69.5716 101.822 70.8437 101.822 72.5031C101.822 74.0076 101.418 75.2245 100.612 76.1537C99.8051 77.083 98.5726 77.802 96.9144 78.3109C97.5643 79.2844 98.1693 80.2136 98.7183 81.1208C99.2673 82.0279 99.7715 82.8465 100.253 83.5988C100.724 84.351 101.161 85.0148 101.553 85.59C101.945 86.1653 102.315 86.6188 102.651 86.9507C102.819 87.1277 102.998 87.2715 103.166 87.3932C103.334 87.5149 103.525 87.6255 103.715 87.7029C103.906 87.7804 104.107 87.8578 104.309 87.9131C104.522 87.9684 104.746 88.0348 105.004 88.0901L105.049 88.7539C104.309 88.8424 103.693 88.8866 103.2 88.8866C102.785 88.8866 102.416 88.8866 102.091 88.8534C101.777 88.8313 101.486 88.7981 101.239 88.7317C100.993 88.6764 100.769 88.599 100.567 88.4994C100.365 88.3999 100.164 88.2782 99.9731 88.1344C99.5474 87.8246 99.1328 87.3711 98.7183 86.7847C98.3037 86.1984 97.8892 85.5236 97.441 84.7824C97.0041 84.0413 96.5447 83.2448 96.0629 82.404C95.5924 81.5633 95.0882 80.7336 94.5616 79.926C94.4047 79.6826 94.2703 79.4946 94.1695 79.3508C94.0574 79.207 93.9454 79.0963 93.8109 79.0189C93.6765 78.9415 93.5308 78.8861 93.3628 78.853C93.1947 78.8198 92.9706 78.7977 92.7017 78.7977L91.6262 78.7645V84.0081H91.615ZM91.615 77.625C92.2424 77.6582 92.8138 77.6693 93.3404 77.6693C95.1106 77.6693 96.3991 77.3042 97.2281 76.563C98.046 75.8218 98.4606 74.6603 98.4606 73.0784C98.4606 71.4964 98.0685 70.4234 97.2842 69.7154C96.4999 69.0074 95.2675 68.6534 93.5981 68.6534C93.3068 68.6534 93.0042 68.6534 92.6793 68.6866C92.3544 68.7087 91.9959 68.7419 91.6262 68.7751V77.625H91.615Z" fill="#024063"/>
<path d="M118.09 87.5813C117.227 88.1122 116.331 88.4994 115.412 88.7317C114.494 88.9641 113.642 89.0747 112.858 89.0747C110.606 89.0747 108.791 88.4441 107.413 87.1719C106.023 85.9108 105.34 84.1519 105.34 81.9062C105.34 79.6605 105.99 77.8352 107.278 76.4192C108.567 74.9922 110.292 74.2842 112.454 74.2842C114.269 74.2842 115.67 74.8152 116.678 75.8772C117.687 76.9392 118.191 78.4105 118.191 80.2911C118.191 80.5787 118.18 80.8663 118.146 81.154H108.477C108.477 83.3222 108.992 84.8709 110.023 85.8002C111.054 86.7294 112.667 87.1941 114.863 87.1941C115.849 87.1941 116.891 87.1056 118 86.9175L118.09 87.5702V87.5813ZM115.042 79.8928V79.4393C115.042 78.0122 114.818 76.9834 114.359 76.3639C113.9 75.7444 113.227 75.4457 112.331 75.4457C111.144 75.4457 110.236 75.8772 109.597 76.7511C108.97 77.614 108.611 78.6649 108.533 79.8928H115.042Z" fill="#024063"/>
<path d="M119.815 75.855L119.737 75.3462C121.451 75.0254 123.076 74.6714 124.611 74.2842L124.768 74.3948V75.8772C126.336 74.8152 127.86 74.2842 129.339 74.2842C131.255 74.2842 132.767 74.9147 133.899 76.1648C135.03 77.4149 135.591 79.0521 135.591 81.0544C135.591 83.5213 134.862 85.4794 133.417 86.9175C131.972 88.3556 129.91 89.0747 127.244 89.0747C126.448 89.0747 125.63 88.9972 124.779 88.8424V92.15C124.779 93.1567 124.779 93.8647 124.812 94.263C124.835 94.5617 124.969 94.7497 125.227 94.805L127.232 95.3692L127.277 95.9887C125.686 95.9555 124.387 95.9445 123.378 95.9445C122.37 95.9445 121.182 95.9555 119.815 95.9887L119.759 95.3692L121.518 94.8603C121.765 94.794 121.888 94.628 121.899 94.3957C121.922 93.6545 121.933 92.5483 121.933 91.0549V84.9041C121.933 80.4349 121.911 77.614 121.877 76.4303L119.838 75.855H119.815ZM124.768 87.4817C125.653 87.6698 126.515 87.7693 127.333 87.7693C129.025 87.7693 130.302 87.2494 131.154 86.1984C132.005 85.1475 132.442 83.643 132.442 81.696C132.442 79.8486 132.039 78.4547 131.221 77.5255C130.403 76.5962 129.238 76.1205 127.703 76.1205C126.605 76.1205 125.619 76.3418 124.768 76.7843V87.4927V87.4817Z" fill="#024063"/>
<path d="M152.464 81.3755C152.464 83.6765 151.758 85.535 150.357 86.951C148.957 88.367 147.164 89.075 145.002 89.075C142.84 89.075 141.17 88.4113 139.87 87.0727C138.571 85.7341 137.91 83.9863 137.91 81.8291C137.91 79.6719 138.593 77.8024 139.96 76.3864C141.327 74.9704 143.131 74.2734 145.383 74.2734C147.512 74.2734 149.226 74.9261 150.514 76.2204C151.814 77.5147 152.464 79.2294 152.464 81.3755ZM141.047 81.5083C141.047 83.3889 141.405 84.9266 142.111 86.1103C142.828 87.2939 143.882 87.8913 145.282 87.8913C146.593 87.8913 147.59 87.3714 148.285 86.3205C148.968 85.2806 149.315 83.7318 149.315 81.6853C149.315 79.7604 148.957 78.2449 148.229 77.1276C147.512 76.0213 146.458 75.4682 145.08 75.4682C143.781 75.4682 142.784 75.966 142.078 76.9616C141.372 77.9572 141.036 79.4728 141.036 81.4972L141.047 81.5083Z" fill="#024063"/>
<path d="M154.559 75.3462C156.262 75.0254 157.887 74.6714 159.433 74.2842L159.59 74.3948V76.1648C161.483 74.9147 163.332 74.2842 165.147 74.2842L165.225 74.3727C164.934 75.8772 164.643 77.437 164.351 79.041L163.735 79.1517C163.444 78.2999 163.175 77.6029 162.906 77.083C162.637 76.563 162.222 76.3086 161.651 76.3086C161.08 76.3086 160.407 76.563 159.578 77.0609V83.6098C159.578 85.1807 159.578 86.3091 159.612 86.9839C159.612 87.2604 159.746 87.4264 159.993 87.4927L162.032 88.068L162.077 88.6875C160.486 88.6543 159.186 88.6432 158.178 88.6432C157.169 88.6432 155.982 88.6543 154.615 88.6875L154.559 88.068L156.34 87.5591C156.587 87.4817 156.71 87.3268 156.721 87.0945C156.721 86.6631 156.733 86.0436 156.733 85.236V80.0809C156.733 78.4326 156.71 77.2157 156.677 76.4082L154.637 75.8661L154.559 75.3572V75.3462Z" fill="#024063"/>
<path d="M171.242 76.2868C171.186 79.694 171.152 82.4375 171.152 84.5283C171.152 85.5792 171.309 86.2983 171.623 86.6965C171.936 87.0948 172.541 87.2939 173.426 87.2939C174.132 87.2939 175.051 87.2054 176.183 87.0174L176.272 87.7032C174.502 88.5772 172.922 89.0197 171.544 89.0197C170.413 89.0197 169.572 88.721 169.023 88.1347C168.474 87.5483 168.194 86.6523 168.194 85.4686C168.194 83.5106 168.228 80.4241 168.306 76.1983L166.189 75.6894L166.099 75.0699L168.463 74.8708L169.539 71.2091C170.121 71.0542 170.659 70.9104 171.141 70.7666L171.298 70.8772C171.264 72.0941 171.253 73.2335 171.253 74.2955V74.8597H175.869V76.2978H171.253L171.242 76.2868Z" fill="#024063"/>
<path d="M178.121 87.1504C178.311 87.1504 178.468 87.2057 178.591 87.3274C178.715 87.4491 178.771 87.604 178.771 87.792C178.771 87.9801 178.715 88.1349 178.591 88.2566C178.468 88.3783 178.311 88.4336 178.121 88.4336C177.919 88.4336 177.762 88.3783 177.639 88.2566C177.516 88.1349 177.46 87.9801 177.46 87.792C177.46 87.604 177.516 87.4491 177.639 87.3274C177.762 87.2057 177.919 87.1504 178.121 87.1504Z" fill="#024063"/>
<path d="M179.835 83.5328C180.474 83.4111 181.068 83.2894 181.617 83.1567L181.661 83.1899C181.639 83.6545 181.628 84.1744 181.628 84.7386V86.8184C181.628 87.2498 181.628 87.5485 181.628 87.7144C181.628 87.814 181.684 87.8804 181.762 87.9025L182.401 88.0905V88.3118C181.908 88.3118 181.482 88.3007 181.112 88.3007C180.743 88.3007 180.328 88.3007 179.835 88.3118L179.813 88.0905L180.451 87.9025C180.53 87.8693 180.586 87.814 180.586 87.7365C180.586 87.5927 180.586 87.3604 180.586 87.0285V85.2254C180.586 84.7497 180.586 84.3182 180.563 83.92L179.835 83.7209L179.813 83.5328H179.835ZM181.684 81.2429C181.684 81.4309 181.628 81.5858 181.505 81.7075C181.381 81.8292 181.224 81.8845 181.034 81.8845C180.844 81.8845 180.698 81.8292 180.586 81.7186C180.474 81.6079 180.418 81.4641 180.418 81.2761C180.418 81.0769 180.474 80.9331 180.597 80.8114C180.72 80.6898 180.877 80.6455 181.068 80.6455C181.247 80.6455 181.393 80.7008 181.505 80.8004C181.617 80.8999 181.673 81.0548 181.673 81.2429H181.684Z" fill="#024063"/>
<path d="M183.006 83.5329C183.622 83.4222 184.193 83.2895 184.742 83.1567L184.798 83.1899V83.8205C185.437 83.378 186.031 83.1567 186.569 83.1567C187.084 83.1567 187.499 83.3005 187.79 83.5882C188.081 83.8758 188.227 84.2851 188.227 84.8051V86.7078C188.227 87.1613 188.227 87.4932 188.227 87.7034C188.227 87.803 188.283 87.8693 188.373 87.8915L188.978 88.0795V88.3008C188.507 88.3008 188.092 88.2897 187.723 88.2897C187.353 88.2897 186.961 88.2897 186.524 88.3008L186.502 88.0795L187.05 87.9247C187.129 87.8915 187.185 87.8362 187.185 87.7587C187.185 87.7034 187.185 87.5928 187.185 87.4158V85.0595C187.185 84.617 187.073 84.2962 186.86 84.1081C186.647 83.92 186.333 83.8205 185.908 83.8205C185.538 83.8205 185.157 83.9201 184.765 84.1302V86.4865C184.765 86.9401 184.765 87.3494 184.765 87.7255C184.765 87.8251 184.81 87.8804 184.888 87.9136L185.46 88.0795V88.3008C185.023 88.3008 184.608 88.2897 184.249 88.2897C183.891 88.2897 183.465 88.2897 182.972 88.3008L182.95 88.0795L183.6 87.8915C183.678 87.8583 183.723 87.803 183.723 87.7255C183.723 87.4932 183.723 87.272 183.723 87.0618V85.2144C183.723 84.7387 183.723 84.3072 183.701 83.8979L182.972 83.6988L182.95 83.5107L183.006 83.5329Z" fill="#024063"/>
</g>
<defs>
<clipPath id="clip0_186_546">
<rect width="189" height="96" fill="white"/>
</clipPath>
</defs>
</svg>
