<svg width="45" height="45" viewBox="0 0 45 45" fill="none" xmlns="http://www.w3.org/2000/svg">
<rect width="45" height="45" rx="8" fill="#FFF6ED"/>
<path d="M27.3193 17.0128H30.8724L27.1328 13.3398V16.8265C27.1328 16.9292 27.2164 17.0128 27.3193 17.0128Z" fill="url(#paint0_linear_302_2595)"/>
<path d="M27.3195 18.1849C26.5706 18.1849 25.9612 17.5757 25.9612 16.8268V13H16.2175C15.012 13 14.0312 13.9807 14.0312 15.1862V30.8137C14.0312 32.0193 15.012 33 16.2175 33H29.0325C30.2382 33 31.2188 32.0193 31.2188 30.8137V18.1849L27.3195 18.1849ZM25.9801 28.1562H18.4331C18.1095 28.1562 17.8472 27.8939 17.8472 27.5703C17.8472 27.2467 18.1095 26.9844 18.4331 26.9844H25.9801C26.3038 26.9844 26.566 27.2467 26.566 27.5703C26.566 27.8939 26.3038 28.1562 25.9801 28.1562ZM17.8472 25.2266C17.8472 24.903 18.1095 24.6406 18.4331 24.6406H25.1678C25.4915 24.6406 25.7537 24.903 25.7537 25.2266C25.7537 25.5502 25.4912 25.8125 25.1678 25.8125H18.4331C18.1095 25.8125 17.8472 25.5502 17.8472 25.2266ZM26.6926 23.4688H18.4331C18.1095 23.4688 17.8472 23.2064 17.8472 22.8828C17.8472 22.5592 18.1095 22.2969 18.4331 22.2969H26.6926C27.0162 22.2969 27.2786 22.5592 27.2786 22.8828C27.2786 23.2064 27.0162 23.4688 26.6926 23.4688Z" fill="url(#paint1_linear_302_2595)"/>
<defs>
<linearGradient id="paint0_linear_302_2595" x1="27.1328" y1="15.1765" x2="30.8724" y2="15.1765" gradientUnits="userSpaceOnUse">
<stop stop-color="#FF820F"/>
<stop offset="1" stop-color="#FFCFA4"/>
</linearGradient>
<linearGradient id="paint1_linear_302_2595" x1="14.0313" y1="23.0008" x2="31.2187" y2="23.0008" gradientUnits="userSpaceOnUse">
<stop stop-color="#FF820F"/>
<stop offset="1" stop-color="#FFCFA4"/>
</linearGradient>
</defs>
</svg>
