<svg width="45" height="45" viewBox="0 0 45 45" fill="none" xmlns="http://www.w3.org/2000/svg">
<rect width="45" height="45" rx="8" fill="#FFF6ED"/>
<path d="M29.3 20.6192C29.3247 17.7234 26.8584 15.0688 23.8022 14.7017C23.7415 14.6945 23.6753 14.6835 23.6052 14.6719C23.4539 14.6469 23.2974 14.6211 23.1395 14.6211C22.5131 14.6211 22.3457 15.0611 22.3016 15.3235C22.2588 15.5786 22.2997 15.7929 22.423 15.9606C22.6304 16.2426 22.9954 16.2927 23.2885 16.3328C23.3744 16.3447 23.4555 16.3557 23.5234 16.371C26.2692 16.9845 27.1938 17.9492 27.6456 20.6717C27.6567 20.7382 27.6617 20.8201 27.6669 20.9071C27.6867 21.2325 27.7277 21.9096 28.4557 21.9096H28.4557C28.5163 21.9096 28.5814 21.9044 28.6492 21.894C29.3271 21.791 29.3058 21.1721 29.2956 20.8747C29.2928 20.791 29.29 20.7118 29.2971 20.6591C29.299 20.6458 29.3 20.6325 29.3 20.6192Z" fill="url(#paint0_linear_302_2558)"/>
<path d="M22.962 13.6385C23.0434 13.6444 23.1204 13.65 23.1845 13.6598C27.6934 14.3532 29.767 16.4895 30.3416 21.0337C30.3514 21.111 30.3529 21.2052 30.3545 21.305C30.3603 21.66 30.3721 22.3986 31.1652 22.4139L31.1899 22.4141C31.4386 22.4141 31.6365 22.3391 31.778 22.191C32.0249 21.9327 32.0077 21.5491 31.9938 21.2407C31.9904 21.1651 31.9872 21.0938 31.988 21.0314C32.0454 16.3839 28.0224 12.1695 23.379 12.0128C23.3597 12.0122 23.3414 12.0132 23.3228 12.0158C23.3046 12.0181 23.2862 12.0191 23.2678 12.0188C23.2215 12.0188 23.1646 12.0148 23.1042 12.0107C23.0311 12.0057 22.9483 12 22.8644 12C22.1249 12 21.9843 12.5256 21.9664 12.8389C21.9249 13.563 22.6254 13.614 22.962 13.6385ZM30.1241 26.9069C30.0272 26.8335 29.9313 26.7589 29.8363 26.6831C29.344 26.2869 28.8202 25.9217 28.3137 25.5686C28.2086 25.4954 28.1036 25.4221 27.9987 25.3486C27.3499 24.8928 26.7666 24.6714 26.2155 24.6714C25.4732 24.6714 24.826 25.0815 24.2919 25.8902C24.0553 26.2488 23.7682 26.4231 23.4144 26.4231C23.2051 26.4231 22.9674 26.3634 22.7079 26.2456C20.6136 25.2959 19.1181 23.8398 18.263 21.9177C17.8496 20.9888 17.9836 20.3815 18.7111 19.8873C19.1243 19.6069 19.8933 19.0849 19.8388 18.0853C19.7771 16.9501 17.2724 13.5344 16.2171 13.1465C15.7702 12.9822 15.3008 12.9806 14.8192 13.1427C13.606 13.5505 12.7354 14.2667 12.3013 15.2138C11.8818 16.129 11.9007 17.2035 12.3561 18.3213C13.6725 21.553 15.5233 24.3707 17.8572 26.6958C20.1418 28.972 22.9497 30.8364 26.2029 32.2372C26.4961 32.3634 26.8037 32.4322 27.0282 32.4824C27.1048 32.4996 27.1709 32.5143 27.219 32.5275C27.2455 32.5347 27.2728 32.5386 27.3002 32.5389L27.3259 32.539H27.326C28.8561 32.539 30.6933 31.1408 31.2575 29.5468C31.7519 28.1511 30.8493 27.4611 30.1241 26.9069ZM23.6388 17.3302C23.3768 17.3368 22.8317 17.3503 22.6404 17.9056C22.5509 18.1651 22.5616 18.3903 22.6723 18.5752C22.8347 18.8464 23.1458 18.9295 23.4288 18.9751C24.4552 19.1398 24.9823 19.7074 25.0878 20.7611C25.1367 21.2525 25.4676 21.5956 25.8924 21.5956C25.9238 21.5956 25.9559 21.5937 25.9879 21.5898C26.4988 21.529 26.7465 21.1537 26.7241 20.4742C26.7323 19.7651 26.3612 18.9601 25.73 18.3188C25.0967 17.6756 24.3332 17.3134 23.6388 17.3302Z" fill="url(#paint1_linear_302_2558)"/>
<defs>
<linearGradient id="paint0_linear_302_2558" x1="22.2852" y1="18.2657" x2="29.3002" y2="18.2657" gradientUnits="userSpaceOnUse">
<stop stop-color="#FF820F"/>
<stop offset="1" stop-color="#FFCFA4"/>
</linearGradient>
<linearGradient id="paint1_linear_302_2558" x1="12" y1="22.2703" x2="32.0007" y2="22.2703" gradientUnits="userSpaceOnUse">
<stop stop-color="#FF820F"/>
<stop offset="1" stop-color="#FFCFA4"/>
</linearGradient>
</defs>
</svg>
