<svg width="45" height="45" viewBox="0 0 45 45" fill="none" xmlns="http://www.w3.org/2000/svg">
<rect width="45" height="45" rx="8" fill="#FFF6ED"/>
<path d="M23.6552 21.2047L18.3013 19.6498C17.1392 19.3123 16.4707 18.0966 16.8082 16.9345L18.3631 11.5806C18.7006 10.4185 19.9163 9.75 21.0784 10.0875L26.4323 11.6424C27.5944 11.9799 28.2629 13.1956 27.9254 14.3577L26.3705 19.7116C26.033 20.8737 24.8173 21.5422 23.6552 21.2047Z" fill="url(#paint0_linear_302_2582)"/>
<path d="M26.4325 11.6427L24.4818 11.0762C25.4634 11.52 25.9952 12.629 25.686 13.6936L24.1245 19.07C23.8127 20.1435 22.7546 20.7969 21.6787 20.6309L23.6554 21.205C24.8175 21.5425 26.0332 20.874 26.3707 19.7119L27.9256 14.358C28.2631 13.1959 27.5946 11.9802 26.4325 11.6427Z" fill="url(#paint1_linear_302_2582)"/>
<path d="M20.9352 31.6853L15.4316 32.5755C14.237 32.7688 13.1119 31.957 12.9187 30.7624L12.0284 25.2588C11.8352 24.0641 12.647 22.9391 13.8416 22.7458L19.3452 21.8556C20.5398 21.6624 21.6648 22.4742 21.8581 23.6688L22.7483 29.1723C22.9416 30.367 22.1298 31.492 20.9352 31.6853Z" fill="url(#paint2_linear_302_2582)"/>
<path d="M22.7485 29.1723L21.8583 23.6688C21.665 22.4742 20.54 21.6624 19.3454 21.8556L17.2891 22.1882C18.389 22.1485 19.3721 22.9327 19.5524 24.0473L20.4521 29.6095C20.6131 30.6047 20.0835 31.5517 19.2163 31.9633L20.9353 31.6852C22.13 31.492 22.9417 30.3669 22.7485 29.1723Z" fill="url(#paint3_linear_302_2582)"/>
<path d="M31.8092 32.0024H26.2341C25.024 32.0024 24.043 31.0213 24.043 29.8112V24.2361C24.043 23.0259 25.024 22.0449 26.2341 22.0449H31.8092C33.0194 22.0449 34.0004 23.0259 34.0004 24.2361V29.8112C34.0004 31.0213 33.0194 32.0024 31.8092 32.0024Z" fill="url(#paint4_linear_302_2582)"/>
<path d="M31.8087 22.0449H30.0234C31.0004 22.2768 31.7273 23.1543 31.7273 24.2022V29.8451C31.7273 30.8929 31.0004 31.7704 30.0234 32.0024H31.8087C33.0189 32.0024 33.9999 31.0213 33.9999 29.8112V24.2361C33.9999 23.0259 33.0189 22.0449 31.8087 22.0449Z" fill="url(#paint5_linear_302_2582)"/>
<path d="M22.1487 18.0022C22.0984 18.0022 22.0449 17.9944 21.9941 17.9796C21.819 17.9287 21.6538 17.7943 21.7046 17.6192L22.6428 14.389L22.4585 14.5195L22.4563 14.5207C22.417 14.5422 22.3731 14.5535 22.3283 14.5538C22.308 14.5538 22.2883 14.5512 22.2714 14.5463C22.1986 14.5252 22.1412 14.4704 22.1097 14.3921C22.0815 14.3204 22.0776 14.2415 22.0986 14.1674C22.13 14.0595 22.2198 13.9636 22.3228 13.9276L23.1226 13.5081C23.1656 13.4844 23.2086 13.4727 23.2533 13.4727C23.2807 13.4727 23.3086 13.4769 23.3386 13.4856C23.496 13.5313 23.6376 13.6781 23.5919 13.8355L22.4317 17.8303C22.4003 17.9379 22.2945 18.0022 22.1487 18.0022ZM16.4637 29.7327C16.3242 29.7327 16.1639 29.6584 16.1416 29.5207L16.0443 28.919C15.9583 28.3874 16.4298 27.9101 16.8859 27.4486C17.3287 27.0004 17.747 26.577 17.6744 26.1282C17.6328 25.8712 17.4336 25.6119 17.0825 25.6119C17.0403 25.6119 16.9962 25.6156 16.9512 25.6228C16.7816 25.6503 16.6463 25.7209 16.5598 25.8273C16.4644 25.9445 16.4314 26.0989 16.4617 26.2862C16.4849 26.4302 16.3623 26.6029 16.1168 26.6426C16.0902 26.6469 16.0646 26.6491 16.0405 26.6491C15.8585 26.6491 15.7466 26.5274 15.7077 26.2872C15.6023 25.6357 16.0888 25.0528 16.8394 24.9314C16.9243 24.9176 17.0102 24.9107 17.0962 24.9106C17.7829 24.9106 18.3143 25.3439 18.4186 25.9887C18.547 26.7824 17.9296 27.3835 17.4335 27.8665C17.0749 28.2156 16.7652 28.5171 16.8101 28.7951L16.841 28.986L18.6199 28.6982C18.6301 28.6965 18.6405 28.6957 18.6509 28.6957C18.784 28.6957 18.9089 28.8232 18.9353 28.9861C18.9643 29.1654 18.8659 29.3489 18.7287 29.3711L16.5204 29.7283C16.5024 29.7312 16.4833 29.7326 16.4637 29.7327ZM29.0002 29.3848C28.5449 29.3848 28.1668 29.2535 27.9068 29.0053C27.6902 28.7986 27.566 28.5172 27.566 28.2333C27.566 27.9941 27.6618 27.9051 27.9193 27.9051C28.2007 27.9051 28.3104 27.9883 28.3104 28.2019C28.3104 28.4514 28.5256 28.7032 29.0064 28.7032C29.5075 28.7032 29.7214 28.4837 29.7214 27.9694V27.85C29.7214 27.4197 29.4855 27.2105 29.0002 27.2105C28.8404 27.2105 28.7411 27.092 28.7411 26.9012C28.7411 26.7065 28.8404 26.5855 29.0002 26.5855C29.3652 26.5855 29.6082 26.4757 29.6082 25.9397C29.6082 25.5236 29.4285 25.338 29.0253 25.338C28.5227 25.338 28.4173 25.5934 28.4173 25.8078C28.4173 26.0172 28.2963 26.1234 28.0576 26.1234C27.7506 26.1234 27.6666 26.0475 27.6666 25.7701C27.6666 25.3588 27.9541 24.6627 29.0316 24.6627C29.8998 24.6627 30.3401 25.0543 30.3401 25.8266C30.3401 26.3057 30.1751 26.6874 29.8941 26.8706C30.2768 27.0524 30.4783 27.3892 30.4783 27.85V27.9694C30.4783 28.498 30.2863 29.3848 29.0002 29.3848Z" fill="white"/>
<defs>
<linearGradient id="paint0_linear_302_2582" x1="16.7207" y1="15.6466" x2="28.0129" y2="15.6466" gradientUnits="userSpaceOnUse">
<stop stop-color="#FF820F"/>
<stop offset="1" stop-color="#FFCFA4"/>
</linearGradient>
<linearGradient id="paint1_linear_302_2582" x1="21.6787" y1="16.1848" x2="28.0131" y2="16.1848" gradientUnits="userSpaceOnUse">
<stop stop-color="#FF820F"/>
<stop offset="1" stop-color="#FFCFA4"/>
</linearGradient>
<linearGradient id="paint2_linear_302_2582" x1="12" y1="27.216" x2="22.7768" y2="27.216" gradientUnits="userSpaceOnUse">
<stop stop-color="#FF820F"/>
<stop offset="1" stop-color="#FFCFA4"/>
</linearGradient>
<linearGradient id="paint3_linear_302_2582" x1="17.2891" y1="26.8956" x2="22.777" y2="26.8956" gradientUnits="userSpaceOnUse">
<stop stop-color="#FF820F"/>
<stop offset="1" stop-color="#FFCFA4"/>
</linearGradient>
<linearGradient id="paint4_linear_302_2582" x1="24.043" y1="27.0241" x2="34.0004" y2="27.0241" gradientUnits="userSpaceOnUse">
<stop stop-color="#FF820F"/>
<stop offset="1" stop-color="#FFCFA4"/>
</linearGradient>
<linearGradient id="paint5_linear_302_2582" x1="30.0234" y1="27.0241" x2="33.9999" y2="27.0241" gradientUnits="userSpaceOnUse">
<stop stop-color="#FF820F"/>
<stop offset="1" stop-color="#FFCFA4"/>
</linearGradient>
</defs>
</svg>
