<svg width="45" height="45" viewBox="0 0 45 45" fill="none" xmlns="http://www.w3.org/2000/svg">
<rect width="45" height="45" rx="8" fill="#FFF6ED"/>
<path d="M22.4382 22.0661C23.9585 22.0661 25.2749 21.5208 26.3506 20.445C27.4262 19.3694 27.9715 18.0533 27.9715 16.5329C27.9715 15.0129 27.4262 13.6967 26.3504 12.6207C25.2746 11.5452 23.9583 11 22.4382 11C20.9178 11 19.6016 11.5452 18.526 12.6209C17.4504 13.6965 16.905 15.0128 16.905 16.5329C16.905 18.0533 17.4504 19.3696 18.5262 20.4452C19.602 21.5207 20.9183 22.0661 22.4382 22.0661ZM32.1199 28.665C32.0888 28.2174 32.0261 27.729 31.9337 27.2134C31.8405 26.6939 31.7205 26.2028 31.5767 25.7539C31.4283 25.29 31.2264 24.8319 30.9768 24.3928C30.7177 23.9371 30.4135 23.5403 30.072 23.2138C29.715 22.8722 29.2779 22.5975 28.7724 22.3972C28.2687 22.1979 27.7105 22.097 27.1133 22.097C26.8788 22.097 26.652 22.1932 26.214 22.4784C25.9027 22.6811 25.5904 22.8824 25.2772 23.0823C24.9763 23.2741 24.5686 23.4537 24.065 23.6164C23.5738 23.7753 23.075 23.856 22.5826 23.856C22.0903 23.856 21.5917 23.7753 21.0998 23.6164C20.5969 23.4539 20.1892 23.2743 19.8886 23.0825C19.5399 22.8597 19.2245 22.6564 18.9509 22.4781C18.5134 22.193 18.2864 22.0968 18.052 22.0968C17.4546 22.0968 16.8966 22.1979 16.393 22.3974C15.8879 22.5974 15.4506 22.872 15.0932 23.2139C14.752 23.5406 14.4476 23.9372 14.1888 24.3928C13.9395 24.8318 13.7376 25.2898 13.5889 25.7541C13.4453 26.203 13.3253 26.6939 13.2321 27.2134C13.1397 27.7283 13.077 28.2168 13.0459 28.6655C13.015 29.117 12.9997 29.5695 13 30.0221C13 31.2213 13.3812 32.1921 14.1329 32.908C14.8754 33.6146 15.8577 33.973 17.0524 33.973H28.114C29.3086 33.973 30.2906 33.6147 31.0332 32.9081C31.7851 32.1926 32.1663 31.2216 32.1663 30.0219C32.1661 29.559 32.1506 29.1024 32.1199 28.665Z" fill="url(#paint0_linear_302_2888)"/>
<defs>
<linearGradient id="paint0_linear_302_2888" x1="13" y1="22.4874" x2="32.1663" y2="22.4874" gradientUnits="userSpaceOnUse">
<stop stop-color="#FF820F"/>
<stop offset="1" stop-color="#FFCFA4"/>
</linearGradient>
</defs>
</svg>
